solid cover2
   facet normal 0.000000e+00 0.000000e+00 1.000000e+00
      outer loop
         vertex -1.312018e+01 5.312956e+01 1.500000e+02
         vertex 8.687982e+01 5.315000e+01 1.500000e+02
         vertex 8.686960e+01 1.031500e+02 1.500000e+02
      endloop
   endfacet
   facet normal 0.000000e+00 0.000000e+00 1.000000e+00
      outer loop
         vertex -1.312018e+01 5.312956e+01 1.500000e+02
         vertex 8.686960e+01 1.031500e+02 1.500000e+02
         vertex 3.686960e+01 1.031398e+02 1.500000e+02
      endloop
   endfacet
   facet normal 0.000000e+00 0.000000e+00 -1.000000e+00
      outer loop
         vertex 3.686960e+01 1.031398e+02 1.450000e+02
         vertex 8.686960e+01 1.031500e+02 1.450000e+02
         vertex 8.687982e+01 5.315000e+01 1.450000e+02
      endloop
   endfacet
   facet normal 0.000000e+00 0.000000e+00 -1.000000e+00
      outer loop
         vertex 3.686960e+01 1.031398e+02 1.450000e+02
         vertex 8.687982e+01 5.315000e+01 1.450000e+02
         vertex -1.312018e+01 5.312956e+01 1.450000e+02
      endloop
   endfacet
   facet normal -7.072513e-01 7.069622e-01 0.000000e+00
      outer loop
         vertex 3.686960e+01 1.031398e+02 1.500000e+02
         vertex 3.686960e+01 1.031398e+02 1.450000e+02
         vertex -1.312018e+01 5.312956e+01 1.450000e+02
      endloop
   endfacet
   facet normal -7.072513e-01 7.069622e-01 0.000000e+00
      outer loop
         vertex 3.686960e+01 1.031398e+02 1.500000e+02
         vertex -1.312018e+01 5.312956e+01 1.450000e+02
         vertex -1.312018e+01 5.312956e+01 1.500000e+02
      endloop
   endfacet
   facet normal -2.044143e-04 1.000000e+00 0.000000e+00
      outer loop
         vertex 8.686960e+01 1.031500e+02 1.500000e+02
         vertex 8.686960e+01 1.031500e+02 1.450000e+02
         vertex 3.686960e+01 1.031398e+02 1.450000e+02
      endloop
   endfacet
   facet normal -2.044143e-04 1.000000e+00 0.000000e+00
      outer loop
         vertex 8.686960e+01 1.031500e+02 1.500000e+02
         vertex 3.686960e+01 1.031398e+02 1.450000e+02
         vertex 3.686960e+01 1.031398e+02 1.500000e+02
      endloop
   endfacet
   facet normal 1.000000e+00 2.044143e-04 0.000000e+00
      outer loop
         vertex 8.687982e+01 5.315000e+01 1.500000e+02
         vertex 8.687982e+01 5.315000e+01 1.450000e+02
         vertex 8.686960e+01 1.031500e+02 1.450000e+02
      endloop
   endfacet
   facet normal 1.000000e+00 2.044143e-04 0.000000e+00
      outer loop
         vertex 8.687982e+01 5.315000e+01 1.500000e+02
         vertex 8.686960e+01 1.031500e+02 1.450000e+02
         vertex 8.686960e+01 1.031500e+02 1.500000e+02
      endloop
   endfacet
   facet normal 2.044143e-04 -1.000000e+00 0.000000e+00
      outer loop
         vertex -1.312018e+01 5.312956e+01 1.500000e+02
         vertex -1.312018e+01 5.312956e+01 1.450000e+02
         vertex 8.687982e+01 5.315000e+01 1.450000e+02
      endloop
   endfacet
   facet normal 2.044143e-04 -1.000000e+00 0.000000e+00
      outer loop
         vertex -1.312018e+01 5.312956e+01 1.500000e+02
         vertex 8.687982e+01 5.315000e+01 1.450000e+02
         vertex 8.687982e+01 5.315000e+01 1.500000e+02
      endloop
   endfacet
endsolid
