solid cover3
   facet normal 0.000000e+00 0.000000e+00 1.000000e+00
      outer loop
         vertex -1.307286e+01 3.150000e+00 1.450000e+02
         vertex -8.072864e+00 3.150000e+00 1.450000e+02
         vertex -8.072864e+00 5.315000e+01 1.450000e+02
      endloop
   endfacet
   facet normal 0.000000e+00 0.000000e+00 1.000000e+00
      outer loop
         vertex -1.307286e+01 3.150000e+00 1.450000e+02
         vertex -8.072864e+00 5.315000e+01 1.450000e+02
         vertex -1.307286e+01 4.815000e+01 1.450000e+02
      endloop
   endfacet
   facet normal 0.000000e+00 0.000000e+00 -1.000000e+00
      outer loop
         vertex -1.307286e+01 4.815000e+01 5.000000e+00
         vertex -8.072864e+00 5.315000e+01 5.000000e+00
         vertex -8.072864e+00 3.150000e+00 5.000000e+00
      endloop
   endfacet
   facet normal 0.000000e+00 0.000000e+00 -1.000000e+00
      outer loop
         vertex -1.307286e+01 4.815000e+01 5.000000e+00
         vertex -8.072864e+00 3.150000e+00 5.000000e+00
         vertex -1.307286e+01 3.150000e+00 5.000000e+00
      endloop
   endfacet
   facet normal -1.000000e+00 -1.224647e-16 0.000000e+00
      outer loop
         vertex -1.307286e+01 2.400000e+01 1.300000e+02
         vertex -1.307286e+01 2.400000e+01 1.100000e+02
         vertex -1.307286e+01 2.400000e+01 4.000000e+01
      endloop
   endfacet
   facet normal -1.000000e+00 -1.224647e-16 0.000000e+00
      outer loop
         vertex -1.307286e+01 2.400000e+01 4.000000e+01
         vertex -1.307286e+01 1.600000e+01 4.000000e+01
         vertex -1.307286e+01 2.400000e+01 1.100000e+02
      endloop
   endfacet
   facet normal -1.000000e+00 -1.224647e-16 0.000000e+00
      outer loop
         vertex -1.307286e+01 2.400000e+01 1.100000e+02
         vertex -1.307286e+01 1.600000e+01 4.000000e+01
         vertex -1.307286e+01 1.600000e+01 1.100000e+02
      endloop
   endfacet
   facet normal -1.000000e+00 -1.224647e-16 0.000000e+00
      outer loop
         vertex -1.307286e+01 1.600000e+01 4.000000e+01
         vertex -1.307286e+01 3.150000e+00 5.000000e+00
         vertex -1.307286e+01 1.600000e+01 1.100000e+02
      endloop
   endfacet
   facet normal -1.000000e+00 -1.224647e-16 0.000000e+00
      outer loop
         vertex -1.307286e+01 1.600000e+01 1.100000e+02
         vertex -1.307286e+01 3.150000e+00 5.000000e+00
         vertex -1.307286e+01 1.600000e+01 1.300000e+02
      endloop
   endfacet
   facet normal -1.000000e+00 -1.224647e-16 0.000000e+00
      outer loop
         vertex -1.307286e+01 3.150000e+00 5.000000e+00
         vertex -1.307286e+01 3.150000e+00 1.450000e+02
         vertex -1.307286e+01 1.600000e+01 1.300000e+02
      endloop
   endfacet
   facet normal -1.000000e+00 -1.224647e-16 0.000000e+00
      outer loop
         vertex -1.307286e+01 1.600000e+01 1.300000e+02
         vertex -1.307286e+01 3.150000e+00 1.450000e+02
         vertex -1.307286e+01 2.400000e+01 1.300000e+02
      endloop
   endfacet
   facet normal -1.000000e+00 -1.224647e-16 0.000000e+00
      outer loop
         vertex -1.307286e+01 3.150000e+00 1.450000e+02
         vertex -1.307286e+01 4.815000e+01 1.450000e+02
         vertex -1.307286e+01 2.400000e+01 1.300000e+02
      endloop
   endfacet
   facet normal -1.000000e+00 -1.224647e-16 0.000000e+00
      outer loop
         vertex -1.307286e+01 2.400000e+01 1.300000e+02
         vertex -1.307286e+01 4.815000e+01 1.450000e+02
         vertex -1.307286e+01 2.400000e+01 2.000000e+01
      endloop
   endfacet
   facet normal -1.000000e+00 -1.224647e-16 0.000000e+00
      outer loop
         vertex -1.307286e+01 4.815000e+01 1.450000e+02
         vertex -1.307286e+01 4.815000e+01 5.000000e+00
         vertex -1.307286e+01 2.400000e+01 2.000000e+01
      endloop
   endfacet
   facet normal -1.000000e+00 -1.224647e-16 0.000000e+00
      outer loop
         vertex -1.307286e+01 2.400000e+01 2.000000e+01
         vertex -1.307286e+01 4.815000e+01 5.000000e+00
         vertex -1.307286e+01 3.150000e+00 5.000000e+00
      endloop
   endfacet
   facet normal -1.000000e+00 -1.224647e-16 0.000000e+00
      outer loop
         vertex -1.307286e+01 1.600000e+01 2.000000e+01
         vertex -1.307286e+01 2.400000e+01 2.000000e+01
         vertex -1.307286e+01 3.150000e+00 5.000000e+00
      endloop
   endfacet
   facet normal -1.000000e+00 -1.224647e-16 0.000000e+00
      outer loop
         vertex -1.307286e+01 1.600000e+01 2.000000e+01
         vertex -1.307286e+01 3.150000e+00 5.000000e+00
         vertex -1.307286e+01 1.600000e+01 4.000000e+01
      endloop
   endfacet
   facet normal -1.000000e+00 -1.224647e-16 0.000000e+00
      outer loop
         vertex -1.307286e+01 2.400000e+01 1.300000e+02
         vertex -1.307286e+01 2.400000e+01 4.000000e+01
         vertex -1.307286e+01 2.400000e+01 2.000000e+01
      endloop
   endfacet
   facet normal 1.000000e+00 0.000000e+00 0.000000e+00
      outer loop
         vertex -8.072864e+00 1.600000e+01 1.300000e+02
         vertex -8.072864e+00 1.600000e+01 1.100000e+02
         vertex -8.072864e+00 1.600000e+01 4.000000e+01
      endloop
   endfacet
   facet normal 1.000000e+00 0.000000e+00 0.000000e+00
      outer loop
         vertex -8.072864e+00 1.600000e+01 4.000000e+01
         vertex -8.072864e+00 2.400000e+01 4.000000e+01
         vertex -8.072864e+00 1.600000e+01 1.100000e+02
      endloop
   endfacet
   facet normal 1.000000e+00 0.000000e+00 0.000000e+00
      outer loop
         vertex -8.072864e+00 1.600000e+01 1.100000e+02
         vertex -8.072864e+00 2.400000e+01 4.000000e+01
         vertex -8.072864e+00 2.400000e+01 1.100000e+02
      endloop
   endfacet
   facet normal 1.000000e+00 0.000000e+00 0.000000e+00
      outer loop
         vertex -8.072864e+00 2.400000e+01 4.000000e+01
         vertex -8.072864e+00 5.315000e+01 5.000000e+00
         vertex -8.072864e+00 2.400000e+01 1.100000e+02
      endloop
   endfacet
   facet normal 1.000000e+00 0.000000e+00 0.000000e+00
      outer loop
         vertex -8.072864e+00 2.400000e+01 1.100000e+02
         vertex -8.072864e+00 5.315000e+01 5.000000e+00
         vertex -8.072864e+00 2.400000e+01 1.300000e+02
      endloop
   endfacet
   facet normal 1.000000e+00 0.000000e+00 0.000000e+00
      outer loop
         vertex -8.072864e+00 5.315000e+01 5.000000e+00
         vertex -8.072864e+00 5.315000e+01 1.450000e+02
         vertex -8.072864e+00 2.400000e+01 1.300000e+02
      endloop
   endfacet
   facet normal 1.000000e+00 0.000000e+00 0.000000e+00
      outer loop
         vertex -8.072864e+00 2.400000e+01 1.300000e+02
         vertex -8.072864e+00 5.315000e+01 1.450000e+02
         vertex -8.072864e+00 1.600000e+01 1.300000e+02
      endloop
   endfacet
   facet normal 1.000000e+00 0.000000e+00 0.000000e+00
      outer loop
         vertex -8.072864e+00 5.315000e+01 1.450000e+02
         vertex -8.072864e+00 3.150000e+00 1.450000e+02
         vertex -8.072864e+00 1.600000e+01 1.300000e+02
      endloop
   endfacet
   facet normal 1.000000e+00 0.000000e+00 0.000000e+00
      outer loop
         vertex -8.072864e+00 1.600000e+01 1.300000e+02
         vertex -8.072864e+00 3.150000e+00 1.450000e+02
         vertex -8.072864e+00 1.600000e+01 2.000000e+01
      endloop
   endfacet
   facet normal 1.000000e+00 0.000000e+00 0.000000e+00
      outer loop
         vertex -8.072864e+00 3.150000e+00 1.450000e+02
         vertex -8.072864e+00 3.150000e+00 5.000000e+00
         vertex -8.072864e+00 1.600000e+01 2.000000e+01
      endloop
   endfacet
   facet normal 1.000000e+00 0.000000e+00 0.000000e+00
      outer loop
         vertex -8.072864e+00 1.600000e+01 2.000000e+01
         vertex -8.072864e+00 3.150000e+00 5.000000e+00
         vertex -8.072864e+00 5.315000e+01 5.000000e+00
      endloop
   endfacet
   facet normal 1.000000e+00 0.000000e+00 0.000000e+00
      outer loop
         vertex -8.072864e+00 2.400000e+01 2.000000e+01
         vertex -8.072864e+00 1.600000e+01 2.000000e+01
         vertex -8.072864e+00 5.315000e+01 5.000000e+00
      endloop
   endfacet
   facet normal 1.000000e+00 0.000000e+00 0.000000e+00
      outer loop
         vertex -8.072864e+00 2.400000e+01 2.000000e+01
         vertex -8.072864e+00 5.315000e+01 5.000000e+00
         vertex -8.072864e+00 2.400000e+01 4.000000e+01
      endloop
   endfacet
   facet normal 1.000000e+00 0.000000e+00 0.000000e+00
      outer loop
         vertex -8.072864e+00 1.600000e+01 1.300000e+02
         vertex -8.072864e+00 1.600000e+01 2.000000e+01
         vertex -8.072864e+00 1.600000e+01 4.000000e+01
      endloop
   endfacet
   facet normal 6.123234e-17 -1.000000e+00 0.000000e+00
      outer loop
         vertex -1.307286e+01 3.150000e+00 1.450000e+02
         vertex -1.307286e+01 3.150000e+00 5.000000e+00
         vertex -8.072864e+00 3.150000e+00 5.000000e+00
      endloop
   endfacet
   facet normal 6.123234e-17 -1.000000e+00 0.000000e+00
      outer loop
         vertex -1.307286e+01 3.150000e+00 1.450000e+02
         vertex -8.072864e+00 3.150000e+00 5.000000e+00
         vertex -8.072864e+00 3.150000e+00 1.450000e+02
      endloop
   endfacet
   facet normal -7.071068e-01 7.071068e-01 0.000000e+00
      outer loop
         vertex -8.072864e+00 5.315000e+01 1.450000e+02
         vertex -1.307286e+01 4.815000e+01 5.000000e+00
         vertex -1.307286e+01 4.815000e+01 1.450000e+02
      endloop
   endfacet
   facet normal -7.071068e-01 7.071068e-01 0.000000e+00
      outer loop
         vertex -8.072864e+00 5.315000e+01 1.450000e+02
         vertex -8.072864e+00 5.315000e+01 5.000000e+00
         vertex -1.307286e+01 4.815000e+01 5.000000e+00
      endloop
   endfacet
   facet normal 4.898587e-16 -2.465190e-32 -1.000000e+00
      outer loop
         vertex -8.072864e+00 2.400000e+01 4.000000e+01
         vertex -1.307286e+01 1.600000e+01 4.000000e+01
         vertex -1.307286e+01 2.400000e+01 4.000000e+01
      endloop
   endfacet
   facet normal 4.898587e-16 -2.465190e-32 -1.000000e+00
      outer loop
         vertex -8.072864e+00 2.400000e+01 4.000000e+01
         vertex -8.072864e+00 1.600000e+01 4.000000e+01
         vertex -1.307286e+01 1.600000e+01 4.000000e+01
      endloop
   endfacet
   facet normal -4.898587e-16 2.465190e-32 1.000000e+00
      outer loop
         vertex -8.072864e+00 1.600000e+01 2.000000e+01
         vertex -1.307286e+01 2.400000e+01 2.000000e+01
         vertex -1.307286e+01 1.600000e+01 2.000000e+01
      endloop
   endfacet
   facet normal -4.898587e-16 2.465190e-32 1.000000e+00
      outer loop
         vertex -8.072864e+00 1.600000e+01 2.000000e+01
         vertex -8.072864e+00 2.400000e+01 2.000000e+01
         vertex -1.307286e+01 2.400000e+01 2.000000e+01
      endloop
   endfacet
   facet normal 1.836970e-16 1.000000e+00 6.533368e-32
      outer loop
         vertex -8.072864e+00 1.600000e+01 4.000000e+01
         vertex -1.307286e+01 1.600000e+01 2.000000e+01
         vertex -1.307286e+01 1.600000e+01 4.000000e+01
      endloop
   endfacet
   facet normal 1.836970e-16 1.000000e+00 6.533368e-32
      outer loop
         vertex -8.072864e+00 1.600000e+01 4.000000e+01
         vertex -8.072864e+00 1.600000e+01 2.000000e+01
         vertex -1.307286e+01 1.600000e+01 2.000000e+01
      endloop
   endfacet
   facet normal -6.123234e-17 -1.000000e+00 -5.343292e-33
      outer loop
         vertex -1.307286e+01 2.400000e+01 4.000000e+01
         vertex -8.072864e+00 2.400000e+01 2.000000e+01
         vertex -8.072864e+00 2.400000e+01 4.000000e+01
      endloop
   endfacet
   facet normal -6.123234e-17 -1.000000e+00 -5.343292e-33
      outer loop
         vertex -1.307286e+01 2.400000e+01 4.000000e+01
         vertex -1.307286e+01 2.400000e+01 2.000000e+01
         vertex -8.072864e+00 2.400000e+01 2.000000e+01
      endloop
   endfacet
   facet normal 4.898587e-16 -2.465190e-32 -1.000000e+00
      outer loop
         vertex -8.072864e+00 2.400000e+01 1.300000e+02
         vertex -1.307286e+01 1.600000e+01 1.300000e+02
         vertex -1.307286e+01 2.400000e+01 1.300000e+02
      endloop
   endfacet
   facet normal 4.898587e-16 -2.465190e-32 -1.000000e+00
      outer loop
         vertex -8.072864e+00 2.400000e+01 1.300000e+02
         vertex -8.072864e+00 1.600000e+01 1.300000e+02
         vertex -1.307286e+01 1.600000e+01 1.300000e+02
      endloop
   endfacet
   facet normal -4.898587e-16 2.465190e-32 1.000000e+00
      outer loop
         vertex -8.072864e+00 1.600000e+01 1.100000e+02
         vertex -1.307286e+01 2.400000e+01 1.100000e+02
         vertex -1.307286e+01 1.600000e+01 1.100000e+02
      endloop
   endfacet
   facet normal -4.898587e-16 2.465190e-32 1.000000e+00
      outer loop
         vertex -8.072864e+00 1.600000e+01 1.100000e+02
         vertex -8.072864e+00 2.400000e+01 1.100000e+02
         vertex -1.307286e+01 2.400000e+01 1.100000e+02
      endloop
   endfacet
   facet normal 1.836970e-16 1.000000e+00 6.533368e-32
      outer loop
         vertex -8.072864e+00 1.600000e+01 1.300000e+02
         vertex -1.307286e+01 1.600000e+01 1.100000e+02
         vertex -1.307286e+01 1.600000e+01 1.300000e+02
      endloop
   endfacet
   facet normal 1.836970e-16 1.000000e+00 6.533368e-32
      outer loop
         vertex -8.072864e+00 1.600000e+01 1.300000e+02
         vertex -8.072864e+00 1.600000e+01 1.100000e+02
         vertex -1.307286e+01 1.600000e+01 1.100000e+02
      endloop
   endfacet
   facet normal -6.123234e-17 -1.000000e+00 -5.343292e-33
      outer loop
         vertex -1.307286e+01 2.400000e+01 1.300000e+02
         vertex -8.072864e+00 2.400000e+01 1.100000e+02
         vertex -8.072864e+00 2.400000e+01 1.300000e+02
      endloop
   endfacet
   facet normal -6.123234e-17 -1.000000e+00 -5.343292e-33
      outer loop
         vertex -1.307286e+01 2.400000e+01 1.300000e+02
         vertex -1.307286e+01 2.400000e+01 1.100000e+02
         vertex -8.072864e+00 2.400000e+01 1.100000e+02
      endloop
   endfacet
endsolid
