solid cover1
   facet normal 0.000000e+00 0.000000e+00 1.000000e+00
      outer loop
         vertex 3.692714e+01 1.031500e+02 1.450000e+02
         vertex -1.307286e+01 5.315000e+01 1.450000e+02
         vertex -1.307286e+01 4.815000e+01 1.450000e+02
      endloop
   endfacet
   facet normal 0.000000e+00 0.000000e+00 1.000000e+00
      outer loop
         vertex 3.692714e+01 1.031500e+02 1.450000e+02
         vertex -1.307286e+01 4.815000e+01 1.450000e+02
         vertex 3.692714e+01 9.815000e+01 1.450000e+02
      endloop
   endfacet
   facet normal 0.000000e+00 0.000000e+00 1.000000e+00
      outer loop
         vertex 3.692714e+01 1.031500e+02 1.450000e+02
         vertex 3.692714e+01 9.815000e+01 1.450000e+02
         vertex 8.692714e+01 9.815000e+01 1.450000e+02
      endloop
   endfacet
   facet normal 0.000000e+00 0.000000e+00 1.000000e+00
      outer loop
         vertex 3.692714e+01 1.031500e+02 1.450000e+02
         vertex 8.692714e+01 9.815000e+01 1.450000e+02
         vertex 8.692714e+01 1.031500e+02 1.450000e+02
      endloop
   endfacet
   facet normal 0.000000e+00 0.000000e+00 -1.000000e+00
      outer loop
         vertex 3.692714e+01 1.031500e+02 5.000000e+00
         vertex 8.692714e+01 1.031500e+02 5.000000e+00
         vertex 3.692714e+01 9.815000e+01 5.000000e+00
      endloop
   endfacet
   facet normal 0.000000e+00 0.000000e+00 -1.000000e+00
      outer loop
         vertex 3.692714e+01 1.031500e+02 5.000000e+00
         vertex 3.692714e+01 9.815000e+01 5.000000e+00
         vertex -1.307286e+01 4.815000e+01 5.000000e+00
      endloop
   endfacet
   facet normal 0.000000e+00 0.000000e+00 -1.000000e+00
      outer loop
         vertex 3.692714e+01 1.031500e+02 5.000000e+00
         vertex -1.307286e+01 4.815000e+01 5.000000e+00
         vertex -1.307286e+01 5.315000e+01 5.000000e+00
      endloop
   endfacet
   facet normal 0.000000e+00 0.000000e+00 -1.000000e+00
      outer loop
         vertex 3.692714e+01 9.815000e+01 5.000000e+00
         vertex 8.692714e+01 1.031500e+02 5.000000e+00
         vertex 8.692714e+01 9.815000e+01 5.000000e+00
      endloop
   endfacet
   facet normal 6.123234e-17 1.000000e+00 0.000000e+00
      outer loop
         vertex 8.692714e+01 1.031500e+02 1.450000e+02
         vertex 8.692714e+01 1.031500e+02 5.000000e+00
         vertex 3.692714e+01 1.031500e+02 5.000000e+00
      endloop
   endfacet
   facet normal 6.123234e-17 1.000000e+00 0.000000e+00
      outer loop
         vertex 8.692714e+01 1.031500e+02 1.450000e+02
         vertex 3.692714e+01 1.031500e+02 5.000000e+00
         vertex 3.692714e+01 1.031500e+02 1.450000e+02
      endloop
   endfacet
   facet normal -7.071068e-01 7.071068e-01 0.000000e+00
      outer loop
         vertex 3.692714e+01 1.031500e+02 1.450000e+02
         vertex 3.692714e+01 1.031500e+02 5.000000e+00
         vertex -1.307286e+01 5.315000e+01 5.000000e+00
      endloop
   endfacet
   facet normal -7.071068e-01 7.071068e-01 0.000000e+00
      outer loop
         vertex 3.692714e+01 1.031500e+02 1.450000e+02
         vertex -1.307286e+01 5.315000e+01 5.000000e+00
         vertex -1.307286e+01 5.315000e+01 1.450000e+02
      endloop
   endfacet
   facet normal -1.000000e+00 1.224647e-16 0.000000e+00
      outer loop
         vertex -1.307286e+01 5.315000e+01 1.450000e+02
         vertex -1.307286e+01 5.315000e+01 5.000000e+00
         vertex -1.307286e+01 4.815000e+01 5.000000e+00
      endloop
   endfacet
   facet normal -1.000000e+00 1.224647e-16 0.000000e+00
      outer loop
         vertex -1.307286e+01 5.315000e+01 1.450000e+02
         vertex -1.307286e+01 4.815000e+01 5.000000e+00
         vertex -1.307286e+01 4.815000e+01 1.450000e+02
      endloop
   endfacet
   facet normal 7.071068e-01 -7.071068e-01 0.000000e+00
      outer loop
         vertex -1.307286e+01 4.815000e+01 1.450000e+02
         vertex -1.307286e+01 4.815000e+01 5.000000e+00
         vertex 3.692714e+01 9.815000e+01 5.000000e+00
      endloop
   endfacet
   facet normal 7.071068e-01 -7.071068e-01 0.000000e+00
      outer loop
         vertex -1.307286e+01 4.815000e+01 1.450000e+02
         vertex 3.692714e+01 9.815000e+01 5.000000e+00
         vertex 3.692714e+01 9.815000e+01 1.450000e+02
      endloop
   endfacet
   facet normal -1.836970e-16 -1.000000e+00 0.000000e+00
      outer loop
         vertex 3.692714e+01 9.815000e+01 1.450000e+02
         vertex 3.692714e+01 9.815000e+01 5.000000e+00
         vertex 8.692714e+01 9.815000e+01 5.000000e+00
      endloop
   endfacet
   facet normal -1.836970e-16 -1.000000e+00 0.000000e+00
      outer loop
         vertex 3.692714e+01 9.815000e+01 1.450000e+02
         vertex 8.692714e+01 9.815000e+01 5.000000e+00
         vertex 8.692714e+01 9.815000e+01 1.450000e+02
      endloop
   endfacet
   facet normal 1.000000e+00 0.000000e+00 0.000000e+00
      outer loop
         vertex 8.692714e+01 9.815000e+01 1.450000e+02
         vertex 8.692714e+01 9.815000e+01 5.000000e+00
         vertex 8.692714e+01 1.031500e+02 5.000000e+00
      endloop
   endfacet
   facet normal 1.000000e+00 0.000000e+00 0.000000e+00
      outer loop
         vertex 8.692714e+01 9.815000e+01 1.450000e+02
         vertex 8.692714e+01 1.031500e+02 5.000000e+00
         vertex 8.692714e+01 1.031500e+02 1.450000e+02
      endloop
   endfacet
endsolid
