solid stearingRotor
   facet normal -2.449294e-16 1.224647e-16 1.000000e+00
      outer loop
         vertex 4.186157e+01 1.604518e+01 2.450000e+01
         vertex 4.174776e+01 1.642037e+01 2.450000e+01
         vertex 4.156294e+01 1.676614e+01 2.450000e+01
      endloop
   endfacet
   facet normal -2.449294e-16 1.224647e-16 1.000000e+00
      outer loop
         vertex 4.186157e+01 1.604518e+01 2.450000e+01
         vertex 4.156294e+01 1.676614e+01 2.450000e+01
         vertex 4.131421e+01 1.706921e+01 2.450000e+01
      endloop
   endfacet
   facet normal -2.449294e-16 1.224647e-16 1.000000e+00
      outer loop
         vertex 4.186157e+01 1.604518e+01 2.450000e+01
         vertex 4.131421e+01 1.706921e+01 2.450000e+01
         vertex 4.101114e+01 1.731794e+01 2.450000e+01
      endloop
   endfacet
   facet normal -2.449294e-16 1.224647e-16 1.000000e+00
      outer loop
         vertex 4.186157e+01 1.604518e+01 2.450000e+01
         vertex 4.101114e+01 1.731794e+01 2.450000e+01
         vertex 4.066537e+01 1.750276e+01 2.450000e+01
      endloop
   endfacet
   facet normal -2.449294e-16 1.224647e-16 1.000000e+00
      outer loop
         vertex 4.186157e+01 1.604518e+01 2.450000e+01
         vertex 4.066537e+01 1.750276e+01 2.450000e+01
         vertex 4.029018e+01 1.761657e+01 2.450000e+01
      endloop
   endfacet
   facet normal -2.449294e-16 1.224647e-16 1.000000e+00
      outer loop
         vertex 4.186157e+01 1.604518e+01 2.450000e+01
         vertex 4.029018e+01 1.761657e+01 2.450000e+01
         vertex 3.990000e+01 1.765500e+01 2.450000e+01
      endloop
   endfacet
   facet normal -2.449294e-16 1.224647e-16 1.000000e+00
      outer loop
         vertex 4.186157e+01 1.604518e+01 2.450000e+01
         vertex 3.990000e+01 1.765500e+01 2.450000e+01
         vertex 3.950982e+01 1.761657e+01 2.450000e+01
      endloop
   endfacet
   facet normal -2.449294e-16 1.224647e-16 1.000000e+00
      outer loop
         vertex 4.186157e+01 1.604518e+01 2.450000e+01
         vertex 3.950982e+01 1.761657e+01 2.450000e+01
         vertex 3.913463e+01 1.750276e+01 2.450000e+01
      endloop
   endfacet
   facet normal -2.449294e-16 1.224647e-16 1.000000e+00
      outer loop
         vertex 4.186157e+01 1.604518e+01 2.450000e+01
         vertex 3.913463e+01 1.750276e+01 2.450000e+01
         vertex 3.878886e+01 1.731794e+01 2.450000e+01
      endloop
   endfacet
   facet normal -2.449294e-16 1.224647e-16 1.000000e+00
      outer loop
         vertex 4.186157e+01 1.604518e+01 2.450000e+01
         vertex 3.878886e+01 1.731794e+01 2.450000e+01
         vertex 3.848579e+01 1.706921e+01 2.450000e+01
      endloop
   endfacet
   facet normal -2.449294e-16 1.224647e-16 1.000000e+00
      outer loop
         vertex 4.186157e+01 1.604518e+01 2.450000e+01
         vertex 3.848579e+01 1.706921e+01 2.450000e+01
         vertex 3.823706e+01 1.676614e+01 2.450000e+01
      endloop
   endfacet
   facet normal -2.449294e-16 1.224647e-16 1.000000e+00
      outer loop
         vertex 4.186157e+01 1.604518e+01 2.450000e+01
         vertex 3.823706e+01 1.676614e+01 2.450000e+01
         vertex 3.805224e+01 1.642037e+01 2.450000e+01
      endloop
   endfacet
   facet normal -2.449294e-16 1.224647e-16 1.000000e+00
      outer loop
         vertex 4.186157e+01 1.604518e+01 2.450000e+01
         vertex 3.805224e+01 1.642037e+01 2.450000e+01
         vertex 3.793843e+01 1.604518e+01 2.450000e+01
      endloop
   endfacet
   facet normal -2.449294e-16 1.224647e-16 1.000000e+00
      outer loop
         vertex 4.186157e+01 1.604518e+01 2.450000e+01
         vertex 3.793843e+01 1.604518e+01 2.450000e+01
         vertex 3.790000e+01 1.565500e+01 2.450000e+01
      endloop
   endfacet
   facet normal -2.449294e-16 1.224647e-16 1.000000e+00
      outer loop
         vertex 4.186157e+01 1.604518e+01 2.450000e+01
         vertex 3.790000e+01 1.565500e+01 2.450000e+01
         vertex 3.793843e+01 1.526482e+01 2.450000e+01
      endloop
   endfacet
   facet normal -2.449294e-16 1.224647e-16 1.000000e+00
      outer loop
         vertex 4.186157e+01 1.604518e+01 2.450000e+01
         vertex 3.793843e+01 1.526482e+01 2.450000e+01
         vertex 3.805224e+01 1.488963e+01 2.450000e+01
      endloop
   endfacet
   facet normal -2.449294e-16 1.224647e-16 1.000000e+00
      outer loop
         vertex 4.186157e+01 1.604518e+01 2.450000e+01
         vertex 3.805224e+01 1.488963e+01 2.450000e+01
         vertex 3.823706e+01 1.454386e+01 2.450000e+01
      endloop
   endfacet
   facet normal -2.449294e-16 1.224647e-16 1.000000e+00
      outer loop
         vertex 4.186157e+01 1.604518e+01 2.450000e+01
         vertex 3.823706e+01 1.454386e+01 2.450000e+01
         vertex 3.848579e+01 1.424079e+01 2.450000e+01
      endloop
   endfacet
   facet normal -2.449294e-16 1.224647e-16 1.000000e+00
      outer loop
         vertex 4.186157e+01 1.604518e+01 2.450000e+01
         vertex 3.848579e+01 1.424079e+01 2.450000e+01
         vertex 3.878886e+01 1.399206e+01 2.450000e+01
      endloop
   endfacet
   facet normal -2.449294e-16 1.224647e-16 1.000000e+00
      outer loop
         vertex 4.186157e+01 1.604518e+01 2.450000e+01
         vertex 3.878886e+01 1.399206e+01 2.450000e+01
         vertex 3.913463e+01 1.380724e+01 2.450000e+01
      endloop
   endfacet
   facet normal -2.449294e-16 1.224647e-16 1.000000e+00
      outer loop
         vertex 4.186157e+01 1.604518e+01 2.450000e+01
         vertex 3.913463e+01 1.380724e+01 2.450000e+01
         vertex 3.950982e+01 1.369343e+01 2.450000e+01
      endloop
   endfacet
   facet normal -2.449294e-16 1.224647e-16 1.000000e+00
      outer loop
         vertex 4.186157e+01 1.604518e+01 2.450000e+01
         vertex 3.950982e+01 1.369343e+01 2.450000e+01
         vertex 3.990000e+01 1.365500e+01 2.450000e+01
      endloop
   endfacet
   facet normal -2.449294e-16 1.224647e-16 1.000000e+00
      outer loop
         vertex 4.186157e+01 1.604518e+01 2.450000e+01
         vertex 3.990000e+01 1.365500e+01 2.450000e+01
         vertex 4.029018e+01 1.369343e+01 2.450000e+01
      endloop
   endfacet
   facet normal -2.449294e-16 1.224647e-16 1.000000e+00
      outer loop
         vertex 4.186157e+01 1.604518e+01 2.450000e+01
         vertex 4.029018e+01 1.369343e+01 2.450000e+01
         vertex 4.066537e+01 1.380724e+01 2.450000e+01
      endloop
   endfacet
   facet normal -2.449294e-16 1.224647e-16 1.000000e+00
      outer loop
         vertex 4.186157e+01 1.604518e+01 2.450000e+01
         vertex 4.066537e+01 1.380724e+01 2.450000e+01
         vertex 4.101114e+01 1.399206e+01 2.450000e+01
      endloop
   endfacet
   facet normal -2.449294e-16 1.224647e-16 1.000000e+00
      outer loop
         vertex 4.186157e+01 1.604518e+01 2.450000e+01
         vertex 4.101114e+01 1.399206e+01 2.450000e+01
         vertex 4.131421e+01 1.424079e+01 2.450000e+01
      endloop
   endfacet
   facet normal -2.449294e-16 1.224647e-16 1.000000e+00
      outer loop
         vertex 4.186157e+01 1.604518e+01 2.450000e+01
         vertex 4.131421e+01 1.424079e+01 2.450000e+01
         vertex 4.156294e+01 1.454386e+01 2.450000e+01
      endloop
   endfacet
   facet normal -2.449294e-16 1.224647e-16 1.000000e+00
      outer loop
         vertex 4.186157e+01 1.604518e+01 2.450000e+01
         vertex 4.156294e+01 1.454386e+01 2.450000e+01
         vertex 4.174776e+01 1.488963e+01 2.450000e+01
      endloop
   endfacet
   facet normal -2.449294e-16 1.224647e-16 1.000000e+00
      outer loop
         vertex 4.186157e+01 1.604518e+01 2.450000e+01
         vertex 4.174776e+01 1.488963e+01 2.450000e+01
         vertex 4.186157e+01 1.526482e+01 2.450000e+01
      endloop
   endfacet
   facet normal -2.449294e-16 1.224647e-16 1.000000e+00
      outer loop
         vertex 4.186157e+01 1.604518e+01 2.450000e+01
         vertex 4.186157e+01 1.526482e+01 2.450000e+01
         vertex 4.190000e+01 1.565500e+01 2.450000e+01
      endloop
   endfacet
   facet normal 2.449294e-16 -1.224647e-16 -1.000000e+00
      outer loop
         vertex 3.793843e+01 1.604518e+01 -1.550000e+01
         vertex 3.805224e+01 1.642037e+01 -1.550000e+01
         vertex 3.823706e+01 1.676614e+01 -1.550000e+01
      endloop
   endfacet
   facet normal 2.449294e-16 -1.224647e-16 -1.000000e+00
      outer loop
         vertex 3.793843e+01 1.604518e+01 -1.550000e+01
         vertex 3.823706e+01 1.676614e+01 -1.550000e+01
         vertex 3.848579e+01 1.706921e+01 -1.550000e+01
      endloop
   endfacet
   facet normal 2.449294e-16 -1.224647e-16 -1.000000e+00
      outer loop
         vertex 3.793843e+01 1.604518e+01 -1.550000e+01
         vertex 3.848579e+01 1.706921e+01 -1.550000e+01
         vertex 3.878886e+01 1.731794e+01 -1.550000e+01
      endloop
   endfacet
   facet normal 2.449294e-16 -1.224647e-16 -1.000000e+00
      outer loop
         vertex 3.793843e+01 1.604518e+01 -1.550000e+01
         vertex 3.878886e+01 1.731794e+01 -1.550000e+01
         vertex 3.913463e+01 1.750276e+01 -1.550000e+01
      endloop
   endfacet
   facet normal 2.449294e-16 -1.224647e-16 -1.000000e+00
      outer loop
         vertex 3.793843e+01 1.604518e+01 -1.550000e+01
         vertex 3.913463e+01 1.750276e+01 -1.550000e+01
         vertex 3.950982e+01 1.761657e+01 -1.550000e+01
      endloop
   endfacet
   facet normal 2.449294e-16 -1.224647e-16 -1.000000e+00
      outer loop
         vertex 3.793843e+01 1.604518e+01 -1.550000e+01
         vertex 3.950982e+01 1.761657e+01 -1.550000e+01
         vertex 3.990000e+01 1.765500e+01 -1.550000e+01
      endloop
   endfacet
   facet normal 2.449294e-16 -1.224647e-16 -1.000000e+00
      outer loop
         vertex 3.793843e+01 1.604518e+01 -1.550000e+01
         vertex 3.990000e+01 1.765500e+01 -1.550000e+01
         vertex 4.029018e+01 1.761657e+01 -1.550000e+01
      endloop
   endfacet
   facet normal 2.449294e-16 -1.224647e-16 -1.000000e+00
      outer loop
         vertex 3.793843e+01 1.604518e+01 -1.550000e+01
         vertex 4.029018e+01 1.761657e+01 -1.550000e+01
         vertex 4.066537e+01 1.750276e+01 -1.550000e+01
      endloop
   endfacet
   facet normal 2.449294e-16 -1.224647e-16 -1.000000e+00
      outer loop
         vertex 3.793843e+01 1.604518e+01 -1.550000e+01
         vertex 4.066537e+01 1.750276e+01 -1.550000e+01
         vertex 4.101114e+01 1.731794e+01 -1.550000e+01
      endloop
   endfacet
   facet normal 2.449294e-16 -1.224647e-16 -1.000000e+00
      outer loop
         vertex 3.793843e+01 1.604518e+01 -1.550000e+01
         vertex 4.101114e+01 1.731794e+01 -1.550000e+01
         vertex 4.131421e+01 1.706921e+01 -1.550000e+01
      endloop
   endfacet
   facet normal 2.449294e-16 -1.224647e-16 -1.000000e+00
      outer loop
         vertex 3.793843e+01 1.604518e+01 -1.550000e+01
         vertex 4.131421e+01 1.706921e+01 -1.550000e+01
         vertex 4.156294e+01 1.676614e+01 -1.550000e+01
      endloop
   endfacet
   facet normal 2.449294e-16 -1.224647e-16 -1.000000e+00
      outer loop
         vertex 3.793843e+01 1.604518e+01 -1.550000e+01
         vertex 4.156294e+01 1.676614e+01 -1.550000e+01
         vertex 4.174776e+01 1.642037e+01 -1.550000e+01
      endloop
   endfacet
   facet normal 2.449294e-16 -1.224647e-16 -1.000000e+00
      outer loop
         vertex 3.793843e+01 1.604518e+01 -1.550000e+01
         vertex 4.174776e+01 1.642037e+01 -1.550000e+01
         vertex 4.186157e+01 1.604518e+01 -1.550000e+01
      endloop
   endfacet
   facet normal 2.449294e-16 -1.224647e-16 -1.000000e+00
      outer loop
         vertex 3.793843e+01 1.604518e+01 -1.550000e+01
         vertex 4.186157e+01 1.604518e+01 -1.550000e+01
         vertex 4.190000e+01 1.565500e+01 -1.550000e+01
      endloop
   endfacet
   facet normal 2.449294e-16 -1.224647e-16 -1.000000e+00
      outer loop
         vertex 3.793843e+01 1.604518e+01 -1.550000e+01
         vertex 4.190000e+01 1.565500e+01 -1.550000e+01
         vertex 4.186157e+01 1.526482e+01 -1.550000e+01
      endloop
   endfacet
   facet normal 2.449294e-16 -1.224647e-16 -1.000000e+00
      outer loop
         vertex 3.793843e+01 1.604518e+01 -1.550000e+01
         vertex 4.186157e+01 1.526482e+01 -1.550000e+01
         vertex 4.174776e+01 1.488963e+01 -1.550000e+01
      endloop
   endfacet
   facet normal 2.449294e-16 -1.224647e-16 -1.000000e+00
      outer loop
         vertex 3.793843e+01 1.604518e+01 -1.550000e+01
         vertex 4.174776e+01 1.488963e+01 -1.550000e+01
         vertex 4.156294e+01 1.454386e+01 -1.550000e+01
      endloop
   endfacet
   facet normal 2.449294e-16 -1.224647e-16 -1.000000e+00
      outer loop
         vertex 3.793843e+01 1.604518e+01 -1.550000e+01
         vertex 4.156294e+01 1.454386e+01 -1.550000e+01
         vertex 4.131421e+01 1.424079e+01 -1.550000e+01
      endloop
   endfacet
   facet normal 2.449294e-16 -1.224647e-16 -1.000000e+00
      outer loop
         vertex 3.793843e+01 1.604518e+01 -1.550000e+01
         vertex 4.131421e+01 1.424079e+01 -1.550000e+01
         vertex 4.101114e+01 1.399206e+01 -1.550000e+01
      endloop
   endfacet
   facet normal 2.449294e-16 -1.224647e-16 -1.000000e+00
      outer loop
         vertex 3.793843e+01 1.604518e+01 -1.550000e+01
         vertex 4.101114e+01 1.399206e+01 -1.550000e+01
         vertex 4.066537e+01 1.380724e+01 -1.550000e+01
      endloop
   endfacet
   facet normal 2.449294e-16 -1.224647e-16 -1.000000e+00
      outer loop
         vertex 3.793843e+01 1.604518e+01 -1.550000e+01
         vertex 4.066537e+01 1.380724e+01 -1.550000e+01
         vertex 4.029018e+01 1.369343e+01 -1.550000e+01
      endloop
   endfacet
   facet normal 2.449294e-16 -1.224647e-16 -1.000000e+00
      outer loop
         vertex 3.793843e+01 1.604518e+01 -1.550000e+01
         vertex 4.029018e+01 1.369343e+01 -1.550000e+01
         vertex 3.990000e+01 1.365500e+01 -1.550000e+01
      endloop
   endfacet
   facet normal 2.449294e-16 -1.224647e-16 -1.000000e+00
      outer loop
         vertex 3.793843e+01 1.604518e+01 -1.550000e+01
         vertex 3.990000e+01 1.365500e+01 -1.550000e+01
         vertex 3.950982e+01 1.369343e+01 -1.550000e+01
      endloop
   endfacet
   facet normal 2.449294e-16 -1.224647e-16 -1.000000e+00
      outer loop
         vertex 3.793843e+01 1.604518e+01 -1.550000e+01
         vertex 3.950982e+01 1.369343e+01 -1.550000e+01
         vertex 3.913463e+01 1.380724e+01 -1.550000e+01
      endloop
   endfacet
   facet normal 2.449294e-16 -1.224647e-16 -1.000000e+00
      outer loop
         vertex 3.793843e+01 1.604518e+01 -1.550000e+01
         vertex 3.913463e+01 1.380724e+01 -1.550000e+01
         vertex 3.878886e+01 1.399206e+01 -1.550000e+01
      endloop
   endfacet
   facet normal 2.449294e-16 -1.224647e-16 -1.000000e+00
      outer loop
         vertex 3.793843e+01 1.604518e+01 -1.550000e+01
         vertex 3.878886e+01 1.399206e+01 -1.550000e+01
         vertex 3.848579e+01 1.424079e+01 -1.550000e+01
      endloop
   endfacet
   facet normal 2.449294e-16 -1.224647e-16 -1.000000e+00
      outer loop
         vertex 3.793843e+01 1.604518e+01 -1.550000e+01
         vertex 3.848579e+01 1.424079e+01 -1.550000e+01
         vertex 3.823706e+01 1.454386e+01 -1.550000e+01
      endloop
   endfacet
   facet normal 2.449294e-16 -1.224647e-16 -1.000000e+00
      outer loop
         vertex 3.793843e+01 1.604518e+01 -1.550000e+01
         vertex 3.823706e+01 1.454386e+01 -1.550000e+01
         vertex 3.805224e+01 1.488963e+01 -1.550000e+01
      endloop
   endfacet
   facet normal 2.449294e-16 -1.224647e-16 -1.000000e+00
      outer loop
         vertex 3.793843e+01 1.604518e+01 -1.550000e+01
         vertex 3.805224e+01 1.488963e+01 -1.550000e+01
         vertex 3.793843e+01 1.526482e+01 -1.550000e+01
      endloop
   endfacet
   facet normal 2.449294e-16 -1.224647e-16 -1.000000e+00
      outer loop
         vertex 3.793843e+01 1.604518e+01 -1.550000e+01
         vertex 3.793843e+01 1.526482e+01 -1.550000e+01
         vertex 3.790000e+01 1.565500e+01 -1.550000e+01
      endloop
   endfacet
   facet normal -9.951847e-01 -9.801714e-02 -1.593690e-16
      outer loop
         vertex 3.790000e+01 1.565500e+01 -1.550000e+01
         vertex 3.793843e+01 1.526482e+01 2.450000e+01
         vertex 3.790000e+01 1.565500e+01 2.450000e+01
      endloop
   endfacet
   facet normal -9.951847e-01 -9.801714e-02 -1.593690e-16
      outer loop
         vertex 3.790000e+01 1.565500e+01 -1.550000e+01
         vertex 3.793843e+01 1.526482e+01 -1.550000e+01
         vertex 3.793843e+01 1.526482e+01 2.450000e+01
      endloop
   endfacet
   facet normal -9.569403e-01 -2.902847e-01 -2.884086e-16
      outer loop
         vertex 3.793843e+01 1.526482e+01 -1.550000e+01
         vertex 3.805224e+01 1.488963e+01 2.450000e+01
         vertex 3.793843e+01 1.526482e+01 2.450000e+01
      endloop
   endfacet
   facet normal -9.569403e-01 -2.902847e-01 -2.884086e-16
      outer loop
         vertex 3.793843e+01 1.526482e+01 -1.550000e+01
         vertex 3.805224e+01 1.488963e+01 -1.550000e+01
         vertex 3.805224e+01 1.488963e+01 2.450000e+01
      endloop
   endfacet
   facet normal -8.819213e-01 -4.713967e-01 -2.505187e-16
      outer loop
         vertex 3.805224e+01 1.488963e+01 -1.550000e+01
         vertex 3.823706e+01 1.454386e+01 2.450000e+01
         vertex 3.805224e+01 1.488963e+01 2.450000e+01
      endloop
   endfacet
   facet normal -8.819213e-01 -4.713967e-01 -2.505187e-16
      outer loop
         vertex 3.805224e+01 1.488963e+01 -1.550000e+01
         vertex 3.823706e+01 1.454386e+01 -1.550000e+01
         vertex 3.823706e+01 1.454386e+01 2.450000e+01
      endloop
   endfacet
   facet normal -7.730105e-01 -6.343933e-01 -1.901103e-16
      outer loop
         vertex 3.823706e+01 1.454386e+01 -1.550000e+01
         vertex 3.848579e+01 1.424079e+01 2.450000e+01
         vertex 3.823706e+01 1.454386e+01 2.450000e+01
      endloop
   endfacet
   facet normal -7.730105e-01 -6.343933e-01 -1.901103e-16
      outer loop
         vertex 3.823706e+01 1.454386e+01 -1.550000e+01
         vertex 3.848579e+01 1.424079e+01 -1.550000e+01
         vertex 3.848579e+01 1.424079e+01 2.450000e+01
      endloop
   endfacet
   facet normal -6.343933e-01 -7.730105e-01 -1.567246e-16
      outer loop
         vertex 3.848579e+01 1.424079e+01 -1.550000e+01
         vertex 3.878886e+01 1.399206e+01 2.450000e+01
         vertex 3.848579e+01 1.424079e+01 2.450000e+01
      endloop
   endfacet
   facet normal -6.343933e-01 -7.730105e-01 -1.567246e-16
      outer loop
         vertex 3.848579e+01 1.424079e+01 -1.550000e+01
         vertex 3.878886e+01 1.399206e+01 -1.550000e+01
         vertex 3.878886e+01 1.399206e+01 2.450000e+01
      endloop
   endfacet
   facet normal -4.713967e-01 -8.819213e-01 -1.283086e-16
      outer loop
         vertex 3.878886e+01 1.399206e+01 -1.550000e+01
         vertex 3.913463e+01 1.380724e+01 2.450000e+01
         vertex 3.878886e+01 1.399206e+01 2.450000e+01
      endloop
   endfacet
   facet normal -4.713967e-01 -8.819213e-01 -1.283086e-16
      outer loop
         vertex 3.878886e+01 1.399206e+01 -1.550000e+01
         vertex 3.913463e+01 1.380724e+01 -1.550000e+01
         vertex 3.913463e+01 1.380724e+01 2.450000e+01
      endloop
   endfacet
   facet normal -2.902847e-01 -9.569403e-01 -1.031298e-16
      outer loop
         vertex 3.913463e+01 1.380724e+01 -1.550000e+01
         vertex 3.950982e+01 1.369343e+01 2.450000e+01
         vertex 3.913463e+01 1.380724e+01 2.450000e+01
      endloop
   endfacet
   facet normal -2.902847e-01 -9.569403e-01 -1.031298e-16
      outer loop
         vertex 3.913463e+01 1.380724e+01 -1.550000e+01
         vertex 3.950982e+01 1.369343e+01 -1.550000e+01
         vertex 3.950982e+01 1.369343e+01 2.450000e+01
      endloop
   endfacet
   facet normal -9.801714e-02 -9.951847e-01 -3.482268e-17
      outer loop
         vertex 3.950982e+01 1.369343e+01 -1.550000e+01
         vertex 3.990000e+01 1.365500e+01 2.450000e+01
         vertex 3.950982e+01 1.369343e+01 2.450000e+01
      endloop
   endfacet
   facet normal -9.801714e-02 -9.951847e-01 -3.482268e-17
      outer loop
         vertex 3.950982e+01 1.369343e+01 -1.550000e+01
         vertex 3.990000e+01 1.365500e+01 -1.550000e+01
         vertex 3.990000e+01 1.365500e+01 2.450000e+01
      endloop
   endfacet
   facet normal 9.801714e-02 -9.951847e-01 3.482268e-17
      outer loop
         vertex 3.990000e+01 1.365500e+01 -1.550000e+01
         vertex 4.029018e+01 1.369343e+01 2.450000e+01
         vertex 3.990000e+01 1.365500e+01 2.450000e+01
      endloop
   endfacet
   facet normal 9.801714e-02 -9.951847e-01 3.482268e-17
      outer loop
         vertex 3.990000e+01 1.365500e+01 -1.550000e+01
         vertex 4.029018e+01 1.369343e+01 -1.550000e+01
         vertex 4.029018e+01 1.369343e+01 2.450000e+01
      endloop
   endfacet
   facet normal 2.902847e-01 -9.569403e-01 1.031298e-16
      outer loop
         vertex 4.029018e+01 1.369343e+01 -1.550000e+01
         vertex 4.066537e+01 1.380724e+01 2.450000e+01
         vertex 4.029018e+01 1.369343e+01 2.450000e+01
      endloop
   endfacet
   facet normal 2.902847e-01 -9.569403e-01 1.031298e-16
      outer loop
         vertex 4.029018e+01 1.369343e+01 -1.550000e+01
         vertex 4.066537e+01 1.380724e+01 -1.550000e+01
         vertex 4.066537e+01 1.380724e+01 2.450000e+01
      endloop
   endfacet
   facet normal 4.713967e-01 -8.819213e-01 1.674738e-16
      outer loop
         vertex 4.066537e+01 1.380724e+01 -1.550000e+01
         vertex 4.101114e+01 1.399206e+01 2.450000e+01
         vertex 4.066537e+01 1.380724e+01 2.450000e+01
      endloop
   endfacet
   facet normal 4.713967e-01 -8.819213e-01 1.674738e-16
      outer loop
         vertex 4.066537e+01 1.380724e+01 -1.550000e+01
         vertex 4.101114e+01 1.399206e+01 -1.550000e+01
         vertex 4.101114e+01 1.399206e+01 2.450000e+01
      endloop
   endfacet
   facet normal 6.343933e-01 -7.730105e-01 2.253818e-16
      outer loop
         vertex 4.101114e+01 1.399206e+01 -1.550000e+01
         vertex 4.131421e+01 1.424079e+01 2.450000e+01
         vertex 4.101114e+01 1.399206e+01 2.450000e+01
      endloop
   endfacet
   facet normal 6.343933e-01 -7.730105e-01 2.253818e-16
      outer loop
         vertex 4.101114e+01 1.399206e+01 -1.550000e+01
         vertex 4.131421e+01 1.424079e+01 -1.550000e+01
         vertex 4.131421e+01 1.424079e+01 2.450000e+01
      endloop
   endfacet
   facet normal 7.730105e-01 -6.343933e-01 2.746285e-16
      outer loop
         vertex 4.131421e+01 1.424079e+01 -1.550000e+01
         vertex 4.156294e+01 1.454386e+01 2.450000e+01
         vertex 4.131421e+01 1.424079e+01 2.450000e+01
      endloop
   endfacet
   facet normal 7.730105e-01 -6.343933e-01 2.746285e-16
      outer loop
         vertex 4.131421e+01 1.424079e+01 -1.550000e+01
         vertex 4.156294e+01 1.454386e+01 -1.550000e+01
         vertex 4.156294e+01 1.454386e+01 2.450000e+01
      endloop
   endfacet
   facet normal 8.819213e-01 -4.713967e-01 3.133214e-16
      outer loop
         vertex 4.156294e+01 1.454386e+01 -1.550000e+01
         vertex 4.174776e+01 1.488963e+01 2.450000e+01
         vertex 4.156294e+01 1.454386e+01 2.450000e+01
      endloop
   endfacet
   facet normal 8.819213e-01 -4.713967e-01 3.133214e-16
      outer loop
         vertex 4.156294e+01 1.454386e+01 -1.550000e+01
         vertex 4.174776e+01 1.488963e+01 -1.550000e+01
         vertex 4.174776e+01 1.488963e+01 2.450000e+01
      endloop
   endfacet
   facet normal 9.569403e-01 -2.902847e-01 3.270823e-16
      outer loop
         vertex 4.174776e+01 1.488963e+01 -1.550000e+01
         vertex 4.186157e+01 1.526482e+01 2.450000e+01
         vertex 4.174776e+01 1.488963e+01 2.450000e+01
      endloop
   endfacet
   facet normal 9.569403e-01 -2.902847e-01 3.270823e-16
      outer loop
         vertex 4.174776e+01 1.488963e+01 -1.550000e+01
         vertex 4.186157e+01 1.526482e+01 -1.550000e+01
         vertex 4.186157e+01 1.526482e+01 2.450000e+01
      endloop
   endfacet
   facet normal 9.951847e-01 -9.801714e-02 3.448550e-16
      outer loop
         vertex 4.186157e+01 1.526482e+01 -1.550000e+01
         vertex 4.190000e+01 1.565500e+01 2.450000e+01
         vertex 4.186157e+01 1.526482e+01 2.450000e+01
      endloop
   endfacet
   facet normal 9.951847e-01 -9.801714e-02 3.448550e-16
      outer loop
         vertex 4.186157e+01 1.526482e+01 -1.550000e+01
         vertex 4.190000e+01 1.565500e+01 -1.550000e+01
         vertex 4.190000e+01 1.565500e+01 2.450000e+01
      endloop
   endfacet
   facet normal 9.951847e-01 9.801714e-02 1.767803e-16
      outer loop
         vertex 4.190000e+01 1.565500e+01 -1.550000e+01
         vertex 4.186157e+01 1.604518e+01 2.450000e+01
         vertex 4.190000e+01 1.565500e+01 2.450000e+01
      endloop
   endfacet
   facet normal 9.951847e-01 9.801714e-02 1.767803e-16
      outer loop
         vertex 4.190000e+01 1.565500e+01 -1.550000e+01
         vertex 4.186157e+01 1.604518e+01 -1.550000e+01
         vertex 4.186157e+01 1.604518e+01 2.450000e+01
      endloop
   endfacet
   facet normal 9.569403e-01 2.902847e-01 1.699868e-16
      outer loop
         vertex 4.186157e+01 1.604518e+01 -1.550000e+01
         vertex 4.174776e+01 1.642037e+01 2.450000e+01
         vertex 4.186157e+01 1.604518e+01 2.450000e+01
      endloop
   endfacet
   facet normal 9.569403e-01 2.902847e-01 1.699868e-16
      outer loop
         vertex 4.186157e+01 1.604518e+01 -1.550000e+01
         vertex 4.174776e+01 1.642037e+01 -1.550000e+01
         vertex 4.174776e+01 1.642037e+01 2.450000e+01
      endloop
   endfacet
   facet normal 8.819213e-01 4.713967e-01 0.000000e+00
      outer loop
         vertex 4.174776e+01 1.642037e+01 -1.550000e+01
         vertex 4.156294e+01 1.676614e+01 2.450000e+01
         vertex 4.174776e+01 1.642037e+01 2.450000e+01
      endloop
   endfacet
   facet normal 8.819213e-01 4.713967e-01 0.000000e+00
      outer loop
         vertex 4.174776e+01 1.642037e+01 -1.550000e+01
         vertex 4.156294e+01 1.676614e+01 -1.550000e+01
         vertex 4.156294e+01 1.676614e+01 2.450000e+01
      endloop
   endfacet
   facet normal 7.730105e-01 6.343933e-01 0.000000e+00
      outer loop
         vertex 4.156294e+01 1.676614e+01 -1.550000e+01
         vertex 4.131421e+01 1.706921e+01 2.450000e+01
         vertex 4.156294e+01 1.676614e+01 2.450000e+01
      endloop
   endfacet
   facet normal 7.730105e-01 6.343933e-01 0.000000e+00
      outer loop
         vertex 4.156294e+01 1.676614e+01 -1.550000e+01
         vertex 4.131421e+01 1.706921e+01 -1.550000e+01
         vertex 4.131421e+01 1.706921e+01 2.450000e+01
      endloop
   endfacet
   facet normal 6.343933e-01 7.730105e-01 0.000000e+00
      outer loop
         vertex 4.131421e+01 1.706921e+01 -1.550000e+01
         vertex 4.101114e+01 1.731794e+01 2.450000e+01
         vertex 4.131421e+01 1.706921e+01 2.450000e+01
      endloop
   endfacet
   facet normal 6.343933e-01 7.730105e-01 0.000000e+00
      outer loop
         vertex 4.131421e+01 1.706921e+01 -1.550000e+01
         vertex 4.101114e+01 1.731794e+01 -1.550000e+01
         vertex 4.101114e+01 1.731794e+01 2.450000e+01
      endloop
   endfacet
   facet normal 4.713967e-01 8.819213e-01 0.000000e+00
      outer loop
         vertex 4.101114e+01 1.731794e+01 -1.550000e+01
         vertex 4.066537e+01 1.750276e+01 2.450000e+01
         vertex 4.101114e+01 1.731794e+01 2.450000e+01
      endloop
   endfacet
   facet normal 4.713967e-01 8.819213e-01 0.000000e+00
      outer loop
         vertex 4.101114e+01 1.731794e+01 -1.550000e+01
         vertex 4.066537e+01 1.750276e+01 -1.550000e+01
         vertex 4.066537e+01 1.750276e+01 2.450000e+01
      endloop
   endfacet
   facet normal 2.902847e-01 9.569403e-01 0.000000e+00
      outer loop
         vertex 4.066537e+01 1.750276e+01 -1.550000e+01
         vertex 4.029018e+01 1.761657e+01 2.450000e+01
         vertex 4.066537e+01 1.750276e+01 2.450000e+01
      endloop
   endfacet
   facet normal 2.902847e-01 9.569403e-01 0.000000e+00
      outer loop
         vertex 4.066537e+01 1.750276e+01 -1.550000e+01
         vertex 4.029018e+01 1.761657e+01 -1.550000e+01
         vertex 4.029018e+01 1.761657e+01 2.450000e+01
      endloop
   endfacet
   facet normal 9.801714e-02 9.951847e-01 -8.839016e-17
      outer loop
         vertex 4.029018e+01 1.761657e+01 -1.550000e+01
         vertex 3.990000e+01 1.765500e+01 2.450000e+01
         vertex 4.029018e+01 1.761657e+01 2.450000e+01
      endloop
   endfacet
   facet normal 9.801714e-02 9.951847e-01 -8.839016e-17
      outer loop
         vertex 4.029018e+01 1.761657e+01 -1.550000e+01
         vertex 3.990000e+01 1.765500e+01 -1.550000e+01
         vertex 3.990000e+01 1.765500e+01 2.450000e+01
      endloop
   endfacet
   facet normal -9.801714e-02 9.951847e-01 -8.839016e-17
      outer loop
         vertex 3.990000e+01 1.765500e+01 -1.550000e+01
         vertex 3.950982e+01 1.761657e+01 2.450000e+01
         vertex 3.990000e+01 1.765500e+01 2.450000e+01
      endloop
   endfacet
   facet normal -9.801714e-02 9.951847e-01 -8.839016e-17
      outer loop
         vertex 3.990000e+01 1.765500e+01 -1.550000e+01
         vertex 3.950982e+01 1.761657e+01 -1.550000e+01
         vertex 3.950982e+01 1.761657e+01 2.450000e+01
      endloop
   endfacet
   facet normal -2.902847e-01 9.569403e-01 -8.499338e-17
      outer loop
         vertex 3.950982e+01 1.761657e+01 -1.550000e+01
         vertex 3.913463e+01 1.750276e+01 2.450000e+01
         vertex 3.950982e+01 1.761657e+01 2.450000e+01
      endloop
   endfacet
   facet normal -2.902847e-01 9.569403e-01 -8.499338e-17
      outer loop
         vertex 3.950982e+01 1.761657e+01 -1.550000e+01
         vertex 3.913463e+01 1.750276e+01 -1.550000e+01
         vertex 3.913463e+01 1.750276e+01 2.450000e+01
      endloop
   endfacet
   facet normal -4.713967e-01 8.819213e-01 -1.566607e-16
      outer loop
         vertex 3.913463e+01 1.750276e+01 -1.550000e+01
         vertex 3.878886e+01 1.731794e+01 2.450000e+01
         vertex 3.913463e+01 1.750276e+01 2.450000e+01
      endloop
   endfacet
   facet normal -4.713967e-01 8.819213e-01 -1.566607e-16
      outer loop
         vertex 3.913463e+01 1.750276e+01 -1.550000e+01
         vertex 3.878886e+01 1.731794e+01 -1.550000e+01
         vertex 3.878886e+01 1.731794e+01 2.450000e+01
      endloop
   endfacet
   facet normal -6.343933e-01 7.730105e-01 -1.373142e-16
      outer loop
         vertex 3.878886e+01 1.731794e+01 -1.550000e+01
         vertex 3.848579e+01 1.706921e+01 2.450000e+01
         vertex 3.878886e+01 1.731794e+01 2.450000e+01
      endloop
   endfacet
   facet normal -6.343933e-01 7.730105e-01 -1.373142e-16
      outer loop
         vertex 3.878886e+01 1.731794e+01 -1.550000e+01
         vertex 3.848579e+01 1.706921e+01 -1.550000e+01
         vertex 3.848579e+01 1.706921e+01 2.450000e+01
      endloop
   endfacet
   facet normal -7.730105e-01 6.343933e-01 -1.690363e-16
      outer loop
         vertex 3.848579e+01 1.706921e+01 -1.550000e+01
         vertex 3.823706e+01 1.676614e+01 2.450000e+01
         vertex 3.848579e+01 1.706921e+01 2.450000e+01
      endloop
   endfacet
   facet normal -7.730105e-01 6.343933e-01 -1.690363e-16
      outer loop
         vertex 3.848579e+01 1.706921e+01 -1.550000e+01
         vertex 3.823706e+01 1.676614e+01 -1.550000e+01
         vertex 3.823706e+01 1.676614e+01 2.450000e+01
      endloop
   endfacet
   facet normal -8.819213e-01 4.713967e-01 -1.256053e-16
      outer loop
         vertex 3.823706e+01 1.676614e+01 -1.550000e+01
         vertex 3.805224e+01 1.642037e+01 2.450000e+01
         vertex 3.823706e+01 1.676614e+01 2.450000e+01
      endloop
   endfacet
   facet normal -8.819213e-01 4.713967e-01 -1.256053e-16
      outer loop
         vertex 3.823706e+01 1.676614e+01 -1.550000e+01
         vertex 3.805224e+01 1.642037e+01 -1.550000e+01
         vertex 3.805224e+01 1.642037e+01 2.450000e+01
      endloop
   endfacet
   facet normal -9.569403e-01 2.902847e-01 -1.031298e-16
      outer loop
         vertex 3.805224e+01 1.642037e+01 -1.550000e+01
         vertex 3.793843e+01 1.604518e+01 2.450000e+01
         vertex 3.805224e+01 1.642037e+01 2.450000e+01
      endloop
   endfacet
   facet normal -9.569403e-01 2.902847e-01 -1.031298e-16
      outer loop
         vertex 3.805224e+01 1.642037e+01 -1.550000e+01
         vertex 3.793843e+01 1.604518e+01 -1.550000e+01
         vertex 3.793843e+01 1.604518e+01 2.450000e+01
      endloop
   endfacet
   facet normal -9.951847e-01 9.801714e-02 -2.116030e-16
      outer loop
         vertex 3.793843e+01 1.604518e+01 -1.550000e+01
         vertex 3.790000e+01 1.565500e+01 2.450000e+01
         vertex 3.793843e+01 1.604518e+01 2.450000e+01
      endloop
   endfacet
   facet normal -9.951847e-01 9.801714e-02 -2.116030e-16
      outer loop
         vertex 3.793843e+01 1.604518e+01 -1.550000e+01
         vertex 3.790000e+01 1.565500e+01 -1.550000e+01
         vertex 3.790000e+01 1.565500e+01 2.450000e+01
      endloop
   endfacet
endsolid
